HIERARCHY
ROOT Hips
{
	OFFSET 0.000000 0.000000 0.000000 
	CHANNELS 6 Xposition Yposition Zposition Zrotation Yrotation Xrotation
	JOINT LeftUpLeg
	{
		OFFSET 1.363060 -1.794630 0.839290 
		CHANNELS 3 Zrotation Yrotation Xrotation
		JOINT LeftLeg
		{
			OFFSET 2.448110 -6.726130 0.000000 
			CHANNELS 3 Zrotation Yrotation Xrotation
			JOINT LeftFoot
			{
				OFFSET 2.562200 -7.039590 0.000000 
				CHANNELS 3 Zrotation Yrotation Xrotation
				JOINT LeftToeBase
				{
					OFFSET 0.157640 -0.433110 2.322550 
					CHANNELS 3 Zrotation Yrotation Xrotation
					End Site
					{
						OFFSET 0.000000 0.000000 0.000000 
					}
				}
			}
		}
	}
	JOINT RightUpLeg
	{
		OFFSET -1.305520 -1.794630 0.839290 
		CHANNELS 3 Zrotation Yrotation Xrotation
		JOINT RightLeg
		{
			OFFSET -2.542530 -6.985550 0.000000 
			CHANNELS 3 Zrotation Yrotation Xrotation
			JOINT RightFoot
			{
				OFFSET -2.568260 -7.056230 0.000000 
				CHANNELS 3 Zrotation Yrotation Xrotation
				JOINT RightToeBase
				{
					OFFSET -0.164730 -0.452590 2.363150 
					CHANNELS 3 Zrotation Yrotation Xrotation
					End Site
					{
						OFFSET 0.000000 0.000000 0.000000 
					}
				}
			}
		}
	}
	JOINT Spine
	{
		OFFSET 0.028270 2.035590 -0.193380 
		CHANNELS 3 Zrotation Yrotation Xrotation
		JOINT Spine1
		{
			OFFSET 0.056720 2.048850 -0.042750 
			CHANNELS 3 Zrotation Yrotation Xrotation
			JOINT Neck1
			{
				OFFSET -0.054170 1.746240 0.172020 
				CHANNELS 3 Zrotation Yrotation Xrotation
				JOINT Head
				{
					OFFSET 0.104070 1.761360 -0.123970 
					CHANNELS 3 Zrotation Yrotation Xrotation
					End Site
					{
						OFFSET 0.000000 0.000000 0.000000 
					}
				}
			}
			JOINT LeftArm
			{
				OFFSET 3.362410 1.200890 -0.311210 
				CHANNELS 3 Zrotation Yrotation Xrotation
				JOINT LeftForeArm
				{
					OFFSET 4.983000 -0.000000 -0.000000 
					CHANNELS 3 Zrotation Yrotation Xrotation
					JOINT LeftHand
					{
						OFFSET 3.483560 -0.000000 -0.000000 
						CHANNELS 3 Zrotation Yrotation Xrotation
						JOINT LeftHandIndex1
						{
							OFFSET 0.715260 -0.000000 -0.000000 
							CHANNELS 3 Zrotation Yrotation Xrotation
							End Site
							{
								OFFSET 0.000000 0.000000 0.000000 
							}
						}
					}
				}
			}
			JOINT RightArm
			{
				OFFSET -3.136600 1.374050 -0.404650 
				CHANNELS 3 Zrotation Yrotation Xrotation
				JOINT RightForeArm
				{
					OFFSET -5.241900 -0.000000 -0.000000 
					CHANNELS 3 Zrotation Yrotation Xrotation
					JOINT RightHand
					{
						OFFSET -3.444170 -0.000000 -0.000000 
						CHANNELS 3 Zrotation Yrotation Xrotation
						JOINT RightHandIndex1
						{
							OFFSET -0.622530 -0.000000 -0.000000 
							CHANNELS 3 Zrotation Yrotation Xrotation
							End Site
							{
								OFFSET 0.000000 0.000000 0.000000 
							}
						}
					}
				}
			}
		}
	}
}
MOTION
Frames: 6
Frame Time: 0.041667
25.854354 18.690806 -6.922603 70.938938 -85.542991 -56.871850 -23.427668 14.662569 -2.765770 -2.004994 0.052238 0.117923 3.681065 8.552740 41.007324 1.779100 -8.390100 -23.905200 9.040351 8.409198 -43.105246 -1.090145 -10.531155 21.160745 5.806587 -38.323145 26.225295 -1.489400 -7.709900 21.836300 0.617754 -2.990586 0.178303 -3.200645 -1.533078 -2.359139 5.868810 1.946861 -6.904074 -0.086200 -0.000100 -7.780300 -76.269669 7.511085 23.228532 11.227519 -22.681616 -3.729974 -1.580730 -2.002551 -20.305274 -7.125000 0.000000 0.000000 77.786941 -5.825810 25.186123 -11.284174 23.049872 -3.446637 1.707802 0.340333 4.632826 7.125000 0.000000 0.000000 
25.643063 18.639015 -6.939231 68.022900 -85.027592 -54.048169 -23.295345 14.527998 -1.890897 -1.985704 0.065817 0.118804 3.640707 9.032923 41.160086 1.674300 -8.152000 -23.176600 8.895919 8.302269 -42.958233 -1.222815 -10.716942 21.693230 5.807575 -38.467805 26.356469 -1.538800 -7.831000 22.201800 0.629698 -3.121901 0.189149 -3.112307 -1.613300 -2.269209 5.857472 1.874868 -6.867267 -0.088800 -0.027400 -7.769000 -76.310112 7.666757 23.310063 11.241831 -22.727187 -3.737360 -1.573800 -2.002010 -20.284962 -7.125000 0.000000 0.000000 77.766721 -5.910867 25.001979 -11.188612 22.945624 -3.413773 1.711489 0.340177 4.721810 7.125000 0.000000 0.000000 
25.427642 18.582777 -6.955435 65.408915 -84.521159 -51.510106 -23.140312 14.386144 -1.012298 -1.964352 0.084357 0.118172 3.586825 9.602813 41.305060 1.552300 -7.863700 -22.300900 8.765127 8.242687 -42.794645 -1.370470 -10.932085 22.343852 5.827150 -38.407554 26.258306 -1.582200 -7.935400 22.518100 0.642180 -3.252127 0.197670 -3.034082 -1.691625 -2.176286 5.848640 1.794387 -6.816520 -0.088400 -0.056800 -7.749600 -76.352214 7.837487 23.361882 11.250211 -22.765942 -3.742495 -1.566397 -2.000367 -20.268397 -7.125000 0.000000 0.000000 77.741763 -6.016083 24.836295 -11.094264 22.846141 -3.381412 1.714539 0.339950 4.815890 7.125000 0.000000 0.000000 
25.208620 18.521985 -6.970792 63.093478 -84.026259 -49.255976 -22.967838 14.243669 -0.127077 -1.940326 0.108708 0.115883 3.516926 10.272512 41.437441 1.411200 -7.513500 -21.245900 8.650566 8.234343 -42.620519 -1.530329 -11.176370 23.130372 5.846191 -38.000440 25.880589 -1.597700 -7.972300 22.629900 0.654090 -3.378896 0.204224 -2.969057 -1.766130 -2.083510 5.842033 1.708673 -6.755124 -0.084100 -0.086600 -7.723500 -76.395299 8.016290 23.381197 11.249137 -22.792270 -3.743805 -1.559213 -1.997962 -20.258905 -7.125000 0.000000 0.000000 77.707143 -6.135384 24.696269 -10.999890 22.749859 -3.349008 1.716743 0.340514 4.903113 7.125000 0.000000 0.000000 
24.986421 18.456532 -6.985831 61.116818 -83.551044 -47.322760 -22.783341 14.109618 0.756977 -1.913279 0.139371 0.111905 3.429436 11.044123 41.551177 1.249800 -7.087900 -19.975900 8.557535 8.284568 -42.444294 -1.693318 -11.448914 24.068212 5.763382 -36.965663 25.325673 -1.565600 -7.895600 22.397400 0.664631 -3.492782 0.209341 -2.915719 -1.832229 -1.987422 5.833528 1.609836 -6.682571 -0.080300 -0.121200 -7.689100 -76.436357 8.197253 23.366678 11.235273 -22.802997 -3.740526 -1.552632 -1.996831 -20.258416 -7.125000 0.000000 0.000000 77.669211 -6.268233 24.570035 -10.908836 22.659991 -3.317959 1.717909 0.342950 4.984989 7.125000 0.000000 0.000000 
24.762209 18.387161 -7.000023 59.405243 -83.098955 -45.644168 -22.584973 13.983642 1.637022 -1.884684 0.173602 0.107415 3.334015 11.864598 41.657590 1.082900 -6.614100 -18.577000 8.505734 8.359164 -42.274155 -1.851386 -11.746112 25.158761 5.489624 -35.142228 24.760370 -1.461700 -7.641100 21.629100 0.673606 -3.596102 0.212334 -2.878216 -1.890664 -1.895877 5.824088 1.506074 -6.602651 -0.076200 -0.157200 -7.649900 -76.475850 8.373542 23.302249 11.201058 -22.787492 -3.729579 -1.546616 -1.997944 -20.262847 -7.125000 0.000000 0.000000 77.626833 -6.413163 24.461673 -10.819655 22.574685 -3.287399 1.717455 0.345387 5.053977 7.125000 0.000000 0.000000 
